<svg xmlns="http://www.w3.org/2000/svg" width="16" height="16" viewBox="0 0 16 16">
  <!-- pixel hand / glove -->
  <!-- shadow -->
  <rect x="6" y="3" width="4" height="1" fill="#05080c"/>
  <rect x="5" y="4" width="5" height="1" fill="#05080c"/>
  <rect x="4" y="5" width="6" height="1" fill="#05080c"/>
  <rect x="4" y="6" width="6" height="1" fill="#05080c"/>
  <rect x="5" y="7" width="5" height="1" fill="#05080c"/>
  <rect x="5" y="8" width="2" height="1" fill="#05080c"/>
  <rect x="8" y="8" width="2" height="1" fill="#05080c"/>
  <rect x="4" y="9" width="6" height="1" fill="#05080c"/>
  <rect x="5" y="10" width="2" height="1" fill="#05080c"/>
  <rect x="8" y="10" width="2" height="1" fill="#05080c"/>
  <!-- outline -->
  <rect x="5" y="2" width="4" height="1" fill="#0b0e13"/>
  <rect x="4" y="3" width="1" height="1" fill="#0b0e13"/>
  <rect x="9" y="3" width="1" height="1" fill="#0b0e13"/>
  <rect x="3" y="4" width="1" height="2" fill="#0b0e13"/>
  <rect x="10" y="4" width="1" height="2" fill="#0b0e13"/>
  <rect x="3" y="6" width="1" height="1" fill="#0b0e13"/>
  <rect x="10" y="6" width="1" height="1" fill="#0b0e13"/>
  <rect x="4" y="7" width="1" height="1" fill="#0b0e13"/>
  <rect x="7" y="7" width="1" height="1" fill="#0b0e13"/>
  <rect x="10" y="7" width="1" height="1" fill="#0b0e13"/>
  <rect x="3" y="8" width="1" height="1" fill="#0b0e13"/>
  <rect x="7" y="8" width="1" height="1" fill="#0b0e13"/>
  <rect x="10" y="8" width="1" height="1" fill="#0b0e13"/>
  <rect x="3" y="9" width="1" height="1" fill="#0b0e13"/>
  <rect x="10" y="9" width="1" height="1" fill="#0b0e13"/>
  <rect x="4" y="10" width="1" height="1" fill="#0b0e13"/>
  <rect x="7" y="10" width="1" height="1" fill="#0b0e13"/>
  <rect x="10" y="10" width="1" height="1" fill="#0b0e13"/>
  <!-- fill -->
  <rect x="5" y="3" width="4" height="1" fill="#dca755"/>
  <rect x="4" y="4" width="5" height="1" fill="#dca755"/>
  <rect x="4" y="5" width="5" height="1" fill="#bd7d25"/>
  <rect x="4" y="6" width="5" height="1" fill="#dca755"/>
  <rect x="5" y="7" width="2" height="1" fill="#dca755"/>
  <rect x="8" y="7" width="2" height="1" fill="#dca755"/>
  <rect x="4" y="8" width="3" height="1" fill="#bd7d25"/>
  <rect x="8" y="8" width="2" height="1" fill="#bd7d25"/>
  <rect x="4" y="9" width="6" height="1" fill="#8a5c20"/>
  <rect x="5" y="10" width="2" height="1" fill="#8a5c20"/>
  <rect x="8" y="10" width="2" height="1" fill="#8a5c20"/>
  <!-- highlight -->
  <rect x="5" y="3" width="2" height="1" fill="#f9e8b6"/>
  <rect x="4" y="4" width="1" height="1" fill="#f9e8b6"/>
  <!-- accent sparkle -->
  <rect x="8" y="2" width="1" height="1" fill="#5a7894"/>
</svg>
