<svg xmlns="http://www.w3.org/2000/svg" viewBox="0 0 24 24" shape-rendering="crispEdges">
  <rect x="6" y="1" width="12" height="1" fill="#d4b896"/>
  <rect x="4" y="2" width="16" height="1" fill="#d4b896"/>
  <rect x="3" y="3" width="18" height="1" fill="#c9a87a"/>
  <rect x="2" y="4" width="1" height="16" fill="#c9a87a"/>
  <rect x="3" y="4" width="18" height="16" fill="#5c3d1e"/>
  <rect x="4" y="5" width="16" height="14" fill="#755429"/>
  <rect x="6" y="7" width="12" height="10" fill="#8b6530"/>
  <rect x="21" y="4" width="1" height="16" fill="#3a2510"/>
  <rect x="3" y="20" width="18" height="1" fill="#3a2510"/>
  <rect x="4" y="21" width="16" height="1" fill="#2e1c0c"/>
  <rect x="6" y="22" width="12" height="1" fill="#2e1c0c"/>
  <rect x="9" y="8" width="4" height="1" fill="#ffffff"/>
  <rect x="8" y="9" width="1" height="2" fill="#ffffff"/>
  <rect x="8" y="11" width="1" height="1" fill="#ffffff"/>
  <rect x="11" y="11" width="3" height="1" fill="#ffffff"/>
  <rect x="8" y="12" width="1" height="1" fill="#ffffff"/>
  <rect x="13" y="12" width="1" height="1" fill="#ffffff"/>
  <rect x="9" y="13" width="4" height="1" fill="#ffffff"/>
  <rect x="13" y="14" width="1" height="1" fill="#ffffff"/>
  <rect x="9" y="15" width="4" height="1" fill="#ffffff"/>
</svg>
