<svg xmlns="http://www.w3.org/2000/svg" viewBox="0 0 24 24" shape-rendering="crispEdges">
  <rect x="8" y="2" width="8" height="1" fill="#f48024"/>
  <rect x="6" y="3" width="12" height="1" fill="#f48024"/>
  <rect x="5" y="4" width="14" height="1" fill="#f48024"/>
  <rect x="4" y="5" width="16" height="1" fill="#f48024"/>
  <rect x="3" y="6" width="18" height="1" fill="#f48024"/>
  <rect x="3" y="7" width="18" height="10" fill="#f48024"/>
  <rect x="4" y="17" width="16" height="1" fill="#f48024"/>
  <rect x="5" y="18" width="14" height="1" fill="#f48024"/>
  <rect x="6" y="19" width="12" height="1" fill="#f48024"/>
  <rect x="7" y="20" width="10" height="1" fill="#f48024"/>
  <rect x="8" y="21" width="8" height="1" fill="#f48024"/>
  <rect x="6" y="8" width="12" height="1" fill="#ffffff"/>
  <rect x="7" y="9" width="11" height="1" fill="#ffffff"/>
  <rect x="8" y="10" width="10" height="1" fill="#ffffff"/>
  <rect x="7" y="12" width="10" height="1" fill="#ffffff"/>
  <rect x="8" y="13" width="9" height="1" fill="#ffffff"/>
  <rect x="9" y="14" width="8" height="1" fill="#ffffff"/>
  <rect x="8" y="16" width="8" height="1" fill="#ffffff"/>
  <rect x="9" y="17" width="7" height="1" fill="#ffffff"/>
  <rect x="10" y="18" width="6" height="1" fill="#ffffff"/>
</svg>
